ffmpeg version 6.1.1-3ubuntu5 Copyright (c) 2000-2023 the FFmpeg developers
  built with gcc 13 (Ubuntu 13.2.0-23ubuntu3)
  configuration: --prefix=/usr --extra-version=3ubuntu5 --toolchain=hardened --libdir=/usr/lib/x86_64-linux-gnu --incdir=/usr/include/x86_64-linux-gnu --arch=amd64 --enable-gpl --disable-stripping --disable-omx --enable-gnutls --enable-libaom --enable-libass --enable-libbs2b --enable-libcaca --enable-libcdio --enable-libcodec2 --enable-libdav1d --enable-libflite --enable-libfontconfig --enable-libfreetype --enable-libfribidi --enable-libglslang --enable-libgme --enable-libgsm --enable-libharfbuzz --enable-libmp3lame --enable-libmysofa --enable-libopenjpeg --enable-libopenmpt --enable-libopus --enable-librubberband --enable-libshine --enable-libsnappy --enable-libsoxr --enable-libspeex --enable-libtheora --enable-libtwolame --enable-libvidstab --enable-libvorbis --enable-libvpx --enable-libwebp --enable-libx265 --enable-libxml2 --enable-libxvid --enable-libzimg --enable-openal --enable-opencl --enable-opengl --disable-sndio --enable-libvpl --disable-libmfx --enable-libdc1394 --enable-libdrm --enable-libiec61883 --enable-chromaprint --enable-frei0r --enable-ladspa --enable-libbluray --enable-libjack --enable-libpulse --enable-librabbitmq --enable-librist --enable-libsrt --enable-libssh --enable-libsvtav1 --enable-libx264 --enable-libzmq --enable-libzvbi --enable-lv2 --enable-sdl2 --enable-libplacebo --enable-librav1e --enable-pocketsphinx --enable-librsvg --enable-libjxl --enable-shared
  libavutil      58. 29.100 / 58. 29.100
  libavcodec     60. 31.102 / 60. 31.102
  libavformat    60. 16.100 / 60. 16.100
  libavdevice    60.  3.100 / 60.  3.100
  libavfilter     9. 12.100 /  9. 12.100
  libswscale      7.  5.100 /  7.  5.100
  libswresample   4. 12.100 /  4. 12.100
  libpostproc    57.  3.100 / 57.  3.100
[video4linux2,v4l2 @ 0x593d3370e040] The driver changed the time per frame from 1/15 to 1/30
Input #0, video4linux2,v4l2, from '/dev/video0':
  Duration: N/A, start: 11917.024341, bitrate: 36864 kb/s
  Stream #0:0: Video: rawvideo (YUY2 / 0x32595559), yuyv422, 320x240, 36864 kb/s, 30 fps, 30 tbr, 1000k tbn
Stream mapping:
  Stream #0:0 -> #0:0 (rawvideo (native) -> h264 (libx264))
Press [q] to stop, [?] for help
[libx264 @ 0x593d33711180] using cpu capabilities: MMX2 SSE2Fast SSSE3 SSE4.2 AVX FMA3 BMI2 AVX2
[libx264 @ 0x593d33711180] profile Constrained Baseline, level 3.0, 4:2:0, 8-bit
Output #0, h264, to 'pipe:':
  Metadata:
    encoder         : Lavf60.16.100
  Stream #0:0: Video: h264, yuv420p(tv, progressive), 320x240, q=2-31, 30 fps, 30 tbn
    Metadata:
      encoder         : Lavc60.31.102 libx264
    Side data:
      cpb: bitrate max/min/avg: 0/0/0 buffer size: 0 vbv_delay: N/A
frame=    0 fps=0.0 q=20.0 size=       0kB time=00:00:00.00 bitrate=N/A speed=   0x    frame=   19 fps=0.0 q=22.0 size=      46kB time=00:00:00.63 bitrate= 597.4kbits/s dup=2 drop=0 speed=1.19x    frame=   34 fps= 33 q=23.0 size=      80kB time=00:00:01.13 bitrate= 577.8kbits/s dup=2 drop=0 speed= 1.1x    frame=   49 fps= 32 q=22.0 size=     112kB time=00:00:01.63 bitrate= 560.4kbits/s dup=2 drop=0 speed=1.06x    frame=   64 fps= 31 q=22.0 size=     138kB time=00:00:02.13 bitrate= 528.3kbits/s dup=2 drop=0 speed=1.05x    frame=   80 fps= 31 q=22.0 size=     164kB time=00:00:02.66 bitrate= 504.7kbits/s dup=2 drop=0 speed=1.04x    frame=   95 fps= 31 q=22.0 size=     190kB time=00:00:03.16 bitrate= 491.8kbits/s dup=2 drop=0 speed=1.03x    frame=  111 fps= 31 q=22.0 size=     217kB time=00:00:03.70 bitrate= 481.2kbits/s dup=2 drop=0 speed=1.03x    frame=  127 fps= 31 q=22.0 size=     254kB time=00:00:04.23 bitrate= 491.5kbits/s dup=2 drop=0 speed=1.02x    frame=  143 fps= 31 q=22.0 size=     284kB time=00:00:04.76 bitrate= 487.4kbits/s dup=2 drop=0 speed=1.02x    frame=  159 fps= 31 q=22.0 size=     309kB time=00:00:05.30 bitrate= 478.3kbits/s dup=2 drop=0 speed=1.02x    frame=  174 fps= 30 q=22.0 size=     336kB time=00:00:05.80 bitrate= 474.3kbits/s dup=2 drop=0 speed=1.01x    frame=  189 fps= 30 q=22.0 size=     363kB time=00:00:06.30 bitrate= 471.6kbits/s dup=2 drop=0 speed=1.01x    frame=  205 fps= 30 q=22.0 size=     394kB time=00:00:06.83 bitrate= 472.4kbits/s dup=3 drop=0 speed=1.02x    frame=  220 fps= 30 q=22.0 size=     422kB time=00:00:07.33 bitrate= 471.8kbits/s dup=3 drop=0 speed=1.02x    frame=  235 fps= 30 q=22.0 size=     448kB time=00:00:07.83 bitrate= 468.1kbits/s dup=3 drop=0 speed=1.01x    frame=  251 fps= 30 q=25.0 size=     475kB time=00:00:08.36 bitrate= 465.2kbits/s dup=3 drop=0 speed=1.01x    frame=  266 fps= 30 q=22.0 size=     509kB time=00:00:08.86 bitrate= 470.5kbits/s dup=3 drop=0 speed=1.01x    frame=  282 fps= 30 q=22.0 size=     543kB time=00:00:09.40 bitrate= 473.3kbits/s dup=3 drop=0 speed=1.01x    frame=  297 fps= 30 q=22.0 size=     569kB time=00:00:09.90 bitrate= 471.2kbits/s dup=3 drop=0 speed=1.01x    frame=  312 fps= 30 q=22.0 size=     596kB time=00:00:10.40 bitrate= 469.4kbits/s dup=3 drop=0 speed=1.01x    frame=  328 fps= 30 q=22.0 size=     624kB time=00:00:10.93 bitrate= 467.5kbits/s dup=3 drop=0 speed=1.01x    frame=  343 fps= 30 q=22.0 size=     649kB time=00:00:11.43 bitrate= 465.2kbits/s dup=3 drop=0 speed=1.01x    frame=  358 fps= 30 q=22.0 size=     679kB time=00:00:11.93 bitrate= 466.2kbits/s dup=3 drop=0 speed=1.01x    frame=  373 fps= 30 q=22.0 size=     705kB time=00:00:12.43 bitrate= 464.3kbits/s dup=3 drop=0 speed=1.01x    frame=  388 fps= 30 q=22.0 size=     735kB time=00:00:12.93 bitrate= 465.8kbits/s dup=3 drop=0 speed=1.01x    frame=  403 fps= 30 q=22.0 size=     762kB time=00:00:13.43 bitrate= 464.5kbits/s dup=3 drop=0 speed=1.01x    frame=  419 fps= 30 q=22.0 size=     793kB time=00:00:13.96 bitrate= 465.4kbits/s dup=3 drop=0 speed=1.01x    frame=  435 fps= 30 q=22.0 size=     824kB time=00:00:14.50 bitrate= 465.8kbits/s dup=4 drop=0 speed=1.01x    frame=  450 fps= 30 q=22.0 size=     851kB time=00:00:15.00 bitrate= 464.8kbits/s dup=4 drop=0 speed=1.01x    frame=  466 fps= 30 q=22.0 size=     878kB time=00:00:15.53 bitrate= 463.2kbits/s dup=4 drop=0 speed=1.01x    frame=  482 fps= 30 q=22.0 size=     909kB time=00:00:16.06 bitrate= 463.5kbits/s dup=4 drop=0 speed=1.01x    frame=  498 fps= 30 q=22.0 size=     939kB time=00:00:16.60 bitrate= 463.3kbits/s dup=4 drop=0 speed=1.01x    frame=  513 fps= 30 q=22.0 size=     976kB time=00:00:17.10 bitrate= 467.8kbits/s dup=4 drop=0 speed=1.01x    frame=  528 fps= 30 q=22.0 size=    1010kB time=00:00:17.60 bitrate= 470.2kbits/s dup=4 drop=0 speed=1.01x    frame=  544 fps= 30 q=22.0 size=    1045kB time=00:00:18.13 bitrate= 472.1kbits/s dup=4 drop=0 speed=1.01x    frame=  560 fps= 30 q=22.0 size=    1077kB time=00:00:18.66 bitrate= 472.8kbits/s dup=4 drop=0 speed=1.01x    frame=  575 fps= 30 q=22.0 size=    1112kB time=00:00:19.16 bitrate= 475.5kbits/s dup=4 drop=0 speed=   1x    frame=  590 fps= 30 q=22.0 size=    1145kB time=00:00:19.66 bitrate= 477.1kbits/s dup=4 drop=0 speed=   1x    frame=  605 fps= 30 q=22.0 size=    1176kB time=00:00:20.16 bitrate= 477.5kbits/s dup=4 drop=0 speed=   1x    frame=  620 fps= 30 q=22.0 size=    1209kB time=00:00:20.66 bitrate= 479.3kbits/s dup=4 drop=0 speed=   1x    frame=  635 fps= 30 q=22.0 size=    1240kB time=00:00:21.16 bitrate= 479.8kbits/s dup=4 drop=0 speed=   1x    frame=  650 fps= 30 q=20.0 size=    1267kB time=00:00:21.70 bitrate= 478.2kbits/s dup=5 drop=0 speed=1.01x    frame=  667 fps= 30 q=22.0 size=    1306kB time=00:00:22.23 bitrate= 481.2kbits/s dup=5 drop=0 speed=1.01x    frame=  682 fps= 30 q=22.0 size=    1337kB time=00:00:22.73 bitrate= 481.6kbits/s dup=5 drop=0 speed=1.01x    frame=  697 fps= 30 q=22.0 size=    1366kB time=00:00:23.23 bitrate= 481.6kbits/s dup=5 drop=0 speed=   1x    frame=  713 fps= 30 q=22.0 size=    1408kB time=00:00:23.76 bitrate= 485.2kbits/s dup=5 drop=0 speed=   1x    frame=  729 fps= 30 q=22.0 size=    1447kB time=00:00:24.30 bitrate= 487.9kbits/s dup=5 drop=0 speed=   1x    frame=  745 fps= 30 q=23.0 size=    1488kB time=00:00:24.83 bitrate= 490.7kbits/s dup=5 drop=0 speed=   1x    frame=  760 fps= 30 q=22.0 size=    1529kB time=00:00:25.33 bitrate= 494.4kbits/s dup=5 drop=0 speed=   1x    frame=  775 fps= 30 q=22.0 size=    1566kB time=00:00:25.83 bitrate= 496.7kbits/s dup=5 drop=0 speed=   1x    frame=  791 fps= 30 q=22.0 size=    1606kB time=00:00:26.36 bitrate= 498.9kbits/s dup=5 drop=0 speed=   1x    frame=  807 fps= 30 q=22.0 size=    1640kB time=00:00:26.90 bitrate= 499.6kbits/s dup=5 drop=0 speed=   1x    frame=  822 fps= 30 q=22.0 size=    1673kB time=00:00:27.40 bitrate= 500.3kbits/s dup=5 drop=0 speed=   1x    frame=  838 fps= 30 q=22.0 size=    1713kB time=00:00:27.93 bitrate= 502.4kbits/s dup=5 drop=0 speed=   1x    frame=  853 fps= 30 q=23.0 size=    1751kB time=00:00:28.43 bitrate= 504.4kbits/s dup=5 drop=0 speed=   1x    frame=  869 fps= 30 q=22.0 size=    1787kB time=00:00:28.96 bitrate= 505.4kbits/s dup=5 drop=0 speed=   1x    frame=  885 fps= 30 q=22.0 size=    1825kB time=00:00:29.50 bitrate= 506.7kbits/s dup=6 drop=0 speed=   1x    frame=  901 fps= 30 q=23.0 size=    1864kB time=00:00:30.03 bitrate= 508.4kbits/s dup=6 drop=0 speed=   1x    frame=  917 fps= 30 q=22.0 size=    1899kB time=00:00:30.53 bitrate= 509.5kbits/s dup=6 drop=0 speed=   1x    frame=  932 fps= 30 q=22.0 size=    1928kB time=00:00:31.06 bitrate= 508.4kbits/s dup=6 drop=0 speed=   1x    frame=  947 fps= 30 q=22.0 size=    1961kB time=00:00:31.56 bitrate= 508.9kbits/s dup=6 drop=0 speed=   1x    frame=  963 fps= 30 q=22.0 size=    1999kB time=00:00:32.10 bitrate= 510.1kbits/s dup=6 drop=0 speed=   1x    frame=  979 fps= 30 q=22.0 size=    2032kB time=00:00:32.63 bitrate= 510.0kbits/s dup=6 drop=0 speed=   1x    frame=  995 fps= 30 q=22.0 size=    2064kB time=00:00:33.16 bitrate= 509.9kbits/s dup=6 drop=0 speed=   1x    frame= 1011 fps= 30 q=22.0 size=    2103kB time=00:00:33.70 bitrate= 511.2kbits/s dup=6 drop=0 speed=   1x    frame= 1027 fps= 30 q=22.0 size=    2136kB time=00:00:34.23 bitrate= 511.1kbits/s dup=6 drop=0 speed=   1x    frame= 1043 fps= 30 q=22.0 size=    2168kB time=00:00:34.76 bitrate= 510.8kbits/s dup=6 drop=0 speed=   1x    frame= 1059 fps= 30 q=22.0 size=    2196kB time=00:00:35.30 bitrate= 509.5kbits/s dup=6 drop=0 speed=   1x    frame= 1074 fps= 30 q=22.0 size=    2226kB time=00:00:35.80 bitrate= 509.4kbits/s dup=6 drop=0 speed=   1x    frame= 1090 fps= 30 q=22.0 size=    2258kB time=00:00:36.33 bitrate= 509.2kbits/s dup=6 drop=0 speed=   1x    frame= 1106 fps= 30 q=21.0 size=    2288kB time=00:00:36.86 bitrate= 508.4kbits/s dup=7 drop=0 speed=   1x    frame= 1123 fps= 30 q=22.0 size=    2326kB time=00:00:37.40 bitrate= 509.5kbits/s dup=7 drop=0 speed=   1x    frame= 1137 fps= 30 q=22.0 size=    2354kB time=00:00:37.90 bitrate= 508.7kbits/s dup=7 drop=0 speed=   1x    frame= 1152 fps= 30 q=22.0 size=    2382kB time=00:00:38.40 bitrate= 508.2kbits/s dup=7 drop=0 speed=   1x    frame= 1167 fps= 30 q=22.0 size=    2416kB time=00:00:38.90 bitrate= 508.9kbits/s dup=7 drop=0 speed=   1x    [vost#0:0/libx264 @ 0x593d33710dc0] Error submitting a packet to the muxer: Broken pipe
[out#0/h264 @ 0x593d3370fac0] Error muxing a packet
[out#0/h264 @ 0x593d3370fac0] Error writing trailer: Broken pipe
[out#0/h264 @ 0x593d3370fac0] Error closing file: Broken pipe
[out#0/h264 @ 0x593d3370fac0] video:2434kB audio:0kB subtitle:0kB other streams:0kB global headers:0kB muxing overhead: unknown
frame= 1175 fps= 30 q=22.0 Lsize=    2432kB time=00:00:39.16 bitrate= 508.7kbits/s dup=7 drop=0 speed=   1x    
[libx264 @ 0x593d33711180] frame I:5     Avg QP:19.20  size: 10629
[libx264 @ 0x593d33711180] frame P:1171  Avg QP:22.08  size:  2085
[libx264 @ 0x593d33711180] mb I  I16..4: 100.0%  0.0%  0.0%
[libx264 @ 0x593d33711180] mb P  I16..4:  0.9%  0.0%  0.0%  P16..4: 53.4%  0.0%  0.0%  0.0%  0.0%    skip:45.7%
[libx264 @ 0x593d33711180] coded y,uvDC,uvAC intra: 44.0% 36.5% 20.4% inter: 26.2% 13.4% 0.5%
[libx264 @ 0x593d33711180] i16 v,h,dc,p: 49% 20% 17% 13%
[libx264 @ 0x593d33711180] i8c dc,h,v,p: 45% 16% 36%  4%
[libx264 @ 0x593d33711180] kb/s:509.01
Conversion failed!
